{
    "asset" : {
        "generator" : "Khronos glTF Blender I/O v3.4.50",
        "version" : "2.0"
    },
    "scene" : 0,
    "scenes" : [
        {
            "name" : "Scene",
            "nodes" : [
                3
            ]
        }
    ],
    "nodes" : [
        {
            "mesh" : 0,
            "name" : "chair",
            "translation" : [
                -0.003979682922363281,
                38.82608413696289,
                -62.101158142089844
            ]
        },
        {
            "mesh" : 1,
            "name" : "chair001",
            "translation" : [
                -0.003979682922363281,
                38.82608413696289,
                58.82429504394531
            ]
        },
        {
            "mesh" : 2,
            "name" : "old_table",
            "translation" : [
                0,
                27.12798309326172,
                -2.295166015625
            ]
        },
        {
            "children" : [
                0,
                1,
                2
            ],
            "name" : "old_wooden_table_and_chair_grp"
        }
    ],
    "materials" : [
        {
            "doubleSided" : true,
            "name" : "chair_mat.001",
            "normalTexture" : {
                "index" : 0
            },
            "occlusionTexture" : {
                "index" : 1
            },
            "pbrMetallicRoughness" : {
                "baseColorTexture" : {
                    "index" : 2
                },
                "metallicRoughnessTexture" : {
                    "index" : 1
                }
            }
        },
        {
            "doubleSided" : true,
            "name" : "old_table_mat.001",
            "normalTexture" : {
                "index" : 3
            },
            "occlusionTexture" : {
                "index" : 4
            },
            "pbrMetallicRoughness" : {
                "baseColorTexture" : {
                    "index" : 5
                },
                "metallicRoughnessTexture" : {
                    "index" : 4
                }
            }
        }
    ],
    "meshes" : [
        {
            "name" : "Mesh.002",
            "primitives" : [
                {
                    "attributes" : {
                        "POSITION" : 0,
                        "TEXCOORD_0" : 1,
                        "NORMAL" : 2
                    },
                    "indices" : 3,
                    "material" : 0
                }
            ]
        },
        {
            "name" : "Mesh.001",
            "primitives" : [
                {
                    "attributes" : {
                        "POSITION" : 4,
                        "TEXCOORD_0" : 5,
                        "NORMAL" : 6
                    },
                    "indices" : 7,
                    "material" : 0
                }
            ]
        },
        {
            "name" : "Mesh",
            "primitives" : [
                {
                    "attributes" : {
                        "POSITION" : 8,
                        "TEXCOORD_0" : 9,
                        "TEXCOORD_1" : 10,
                        "NORMAL" : 11
                    },
                    "indices" : 12,
                    "material" : 1
                }
            ]
        }
    ],
    "textures" : [
        {
            "sampler" : 0,
            "source" : 0
        },
        {
            "sampler" : 0,
            "source" : 1
        },
        {
            "sampler" : 0,
            "source" : 2
        },
        {
            "sampler" : 0,
            "source" : 3
        },
        {
            "sampler" : 0,
            "source" : 4
        },
        {
            "sampler" : 0,
            "source" : 5
        }
    ],
    "images" : [
        {
            "mimeType" : "image/png",
            "name" : "chair_Normal",
            "uri" : "chair_Normal.png"
        },
        {
            "mimeType" : "image/png",
            "name" : "chair_AO-chair_Roughness-chair_Metallic",
            "uri" : "chair_AO-chair_Roughness-chair_Metallic.png"
        },
        {
            "mimeType" : "image/png",
            "name" : "chair_bcolor",
            "uri" : "chair_bcolor.png"
        },
        {
            "mimeType" : "image/png",
            "name" : "old_table_Normal",
            "uri" : "old_table_Normal.png"
        },
        {
            "mimeType" : "image/png",
            "name" : "old_table_AO-old_table_Roughness-old_table_Metallic",
            "uri" : "old_table_AO-old_table_Roughness-old_table_Metallic.png"
        },
        {
            "mimeType" : "image/png",
            "name" : "old_table_bcolor",
            "uri" : "old_table_bcolor.png"
        }
    ],
    "accessors" : [
        {
            "bufferView" : 0,
            "componentType" : 5126,
            "count" : 2856,
            "max" : [
                17.329492568969727,
                38.82607650756836,
                19.910072326660156
            ],
            "min" : [
                -17.329490661621094,
                -38.82608413696289,
                -19.910076141357422
            ],
            "type" : "VEC3"
        },
        {
            "bufferView" : 1,
            "componentType" : 5126,
            "count" : 2856,
            "type" : "VEC2"
        },
        {
            "bufferView" : 2,
            "componentType" : 5126,
            "count" : 2856,
            "type" : "VEC3"
        },
        {
            "bufferView" : 3,
            "componentType" : 5123,
            "count" : 4314,
            "type" : "SCALAR"
        },
        {
            "bufferView" : 4,
            "componentType" : 5126,
            "count" : 2880,
            "max" : [
                21.165523529052734,
                38.82607650756836,
                23.186931610107422
            ],
            "min" : [
                -20.910676956176758,
                -38.82608413696289,
                -22.755210876464844
            ],
            "type" : "VEC3"
        },
        {
            "bufferView" : 5,
            "componentType" : 5126,
            "count" : 2880,
            "type" : "VEC2"
        },
        {
            "bufferView" : 6,
            "componentType" : 5126,
            "count" : 2880,
            "type" : "VEC3"
        },
        {
            "bufferView" : 7,
            "componentType" : 5123,
            "count" : 4314,
            "type" : "SCALAR"
        },
        {
            "bufferView" : 8,
            "componentType" : 5126,
            "count" : 2540,
            "max" : [
                60.11635971069336,
                27.127925872802734,
                35.33208084106445
            ],
            "min" : [
                -60.11635971069336,
                -27.1279296875,
                -35.33208084106445
            ],
            "type" : "VEC3"
        },
        {
            "bufferView" : 9,
            "componentType" : 5126,
            "count" : 2540,
            "type" : "VEC2"
        },
        {
            "bufferView" : 10,
            "componentType" : 5126,
            "count" : 2540,
            "type" : "VEC2"
        },
        {
            "bufferView" : 11,
            "componentType" : 5126,
            "count" : 2540,
            "type" : "VEC3"
        },
        {
            "bufferView" : 12,
            "componentType" : 5123,
            "count" : 3828,
            "type" : "SCALAR"
        }
    ],
    "bufferViews" : [
        {
            "buffer" : 0,
            "byteLength" : 34272,
            "byteOffset" : 0,
            "target" : 34962
        },
        {
            "buffer" : 0,
            "byteLength" : 22848,
            "byteOffset" : 34272,
            "target" : 34962
        },
        {
            "buffer" : 0,
            "byteLength" : 34272,
            "byteOffset" : 57120,
            "target" : 34962
        },
        {
            "buffer" : 0,
            "byteLength" : 8628,
            "byteOffset" : 91392,
            "target" : 34963
        },
        {
            "buffer" : 0,
            "byteLength" : 34560,
            "byteOffset" : 100020,
            "target" : 34962
        },
        {
            "buffer" : 0,
            "byteLength" : 23040,
            "byteOffset" : 134580,
            "target" : 34962
        },
        {
            "buffer" : 0,
            "byteLength" : 34560,
            "byteOffset" : 157620,
            "target" : 34962
        },
        {
            "buffer" : 0,
            "byteLength" : 8628,
            "byteOffset" : 192180,
            "target" : 34963
        },
        {
            "buffer" : 0,
            "byteLength" : 30480,
            "byteOffset" : 200808,
            "target" : 34962
        },
        {
            "buffer" : 0,
            "byteLength" : 20320,
            "byteOffset" : 231288,
            "target" : 34962
        },
        {
            "buffer" : 0,
            "byteLength" : 20320,
            "byteOffset" : 251608,
            "target" : 34962
        },
        {
            "buffer" : 0,
            "byteLength" : 30480,
            "byteOffset" : 271928,
            "target" : 34962
        },
        {
            "buffer" : 0,
            "byteLength" : 7656,
            "byteOffset" : 302408,
            "target" : 34963
        }
    ],
    "samplers" : [
        {
            "magFilter" : 9729,
            "minFilter" : 9987
        }
    ],
    "buffers" : [
        {
            "byteLength" : 310064,
            "uri" : "Old_wooden_table_and_chair.bin"
        }
    ]
}
